<mxfile host="app.diagrams.net" modified="2020-12-04T22:35:42.428Z" agent="5.0 (Macintosh; Intel Mac OS X 10_15_6) AppleWebKit/605.1.15 (KHTML, like Gecko) Version/14.0.1 Safari/605.1.15" etag="pUNfvnrXRXgIX5TZP-QD" version="13.10.8" type="github">
  <diagram id="VMwvuHMHmn4qF0MscLtu" name="Page-1">
    <mxGraphModel dx="601" dy="645" grid="1" gridSize="10" guides="1" tooltips="1" connect="1" arrows="1" fold="1" page="1" pageScale="1" pageWidth="827" pageHeight="1169" math="0" shadow="0">
      <root>
        <mxCell id="0" />
        <mxCell id="1" parent="0" />
        <mxCell id="dooK4MXYY1zsELrZK12N-2" value="" style="shape=folder;fontStyle=1;spacingTop=10;tabWidth=125;tabHeight=40;tabPosition=left;html=1;fontSize=10;" vertex="1" parent="1">
          <mxGeometry x="175" y="40" width="605" height="740" as="geometry" />
        </mxCell>
        <mxCell id="gUlx6FJKL10JjqpR3l20-11" value="" style="endArrow=none;html=1;entryX=0;entryY=0.5;entryDx=0;entryDy=0;exitX=1;exitY=0.3333333333333333;exitDx=0;exitDy=0;exitPerimeter=0;" parent="1" target="dooK4MXYY1zsELrZK12N-18" edge="1">
          <mxGeometry width="50" height="50" relative="1" as="geometry">
            <mxPoint x="80" y="365" as="sourcePoint" />
            <mxPoint x="222.5" y="153" as="targetPoint" />
          </mxGeometry>
        </mxCell>
        <mxCell id="gUlx6FJKL10JjqpR3l20-12" value="" style="endArrow=none;html=1;entryX=0;entryY=0.5;entryDx=0;entryDy=0;exitX=1;exitY=0.3333333333333333;exitDx=0;exitDy=0;exitPerimeter=0;" parent="1" target="dooK4MXYY1zsELrZK12N-8" edge="1">
          <mxGeometry width="50" height="50" relative="1" as="geometry">
            <mxPoint x="80" y="365" as="sourcePoint" />
            <mxPoint x="495" y="390" as="targetPoint" />
          </mxGeometry>
        </mxCell>
        <mxCell id="gUlx6FJKL10JjqpR3l20-18" value="" style="endArrow=none;html=1;exitX=0;exitY=0.5;exitDx=0;exitDy=0;entryX=1;entryY=0.3333333333333333;entryDx=0;entryDy=0;entryPerimeter=0;" parent="1" source="dooK4MXYY1zsELrZK12N-13" edge="1">
          <mxGeometry width="50" height="50" relative="1" as="geometry">
            <mxPoint x="275" y="297.5" as="sourcePoint" />
            <mxPoint x="80" y="365" as="targetPoint" />
          </mxGeometry>
        </mxCell>
        <mxCell id="gUlx6FJKL10JjqpR3l20-20" value="" style="endArrow=none;html=1;exitX=1;exitY=0.3333333333333333;exitDx=0;exitDy=0;entryX=0;entryY=0.5;entryDx=0;entryDy=0;exitPerimeter=0;" parent="1" target="dooK4MXYY1zsELrZK12N-10" edge="1">
          <mxGeometry width="50" height="50" relative="1" as="geometry">
            <mxPoint x="80" y="365" as="sourcePoint" />
            <mxPoint x="387.5" y="470" as="targetPoint" />
          </mxGeometry>
        </mxCell>
        <mxCell id="gUlx6FJKL10JjqpR3l20-21" value="" style="endArrow=none;html=1;entryX=0;entryY=0.5;entryDx=0;entryDy=0;exitX=1;exitY=0.3333333333333333;exitDx=0;exitDy=0;exitPerimeter=0;" parent="1" target="dooK4MXYY1zsELrZK12N-9" edge="1">
          <mxGeometry width="50" height="50" relative="1" as="geometry">
            <mxPoint x="80" y="365" as="sourcePoint" />
            <mxPoint x="242.5" y="550" as="targetPoint" />
          </mxGeometry>
        </mxCell>
        <mxCell id="dekUCGJpnBiWNdBBW9Px-14" value="&lt;font style=&quot;font-size: 15px&quot;&gt;Direttore &lt;br&gt;Generale&lt;/font&gt;" style="shape=umlActor;verticalLabelPosition=bottom;verticalAlign=top;html=1;outlineConnect=0;" parent="1" vertex="1">
          <mxGeometry x="40" y="330" width="30" height="60" as="geometry" />
        </mxCell>
        <mxCell id="dooK4MXYY1zsELrZK12N-3" value="&lt;div&gt;&lt;font style=&quot;font-size: 11px&quot;&gt;&lt;b&gt;Gestione Personale&lt;/b&gt;&lt;/font&gt;&lt;/div&gt;" style="text;html=1;strokeColor=none;fillColor=none;align=left;verticalAlign=middle;whiteSpace=wrap;rounded=0;" vertex="1" parent="1">
          <mxGeometry x="180" y="50" width="107.5" height="30" as="geometry" />
        </mxCell>
        <mxCell id="dooK4MXYY1zsELrZK12N-6" value="" style="endArrow=classic;html=1;dashed=1;exitX=0;exitY=0.5;exitDx=0;exitDy=0;verticalAlign=bottom;entryX=1;entryY=0.5;entryDx=0;entryDy=0;" edge="1" parent="1" source="dooK4MXYY1zsELrZK12N-15" target="dooK4MXYY1zsELrZK12N-18">
          <mxGeometry width="50" height="50" relative="1" as="geometry">
            <mxPoint x="450" y="290" as="sourcePoint" />
            <mxPoint x="460" y="158" as="targetPoint" />
          </mxGeometry>
        </mxCell>
        <mxCell id="dooK4MXYY1zsELrZK12N-7" value="&amp;nbsp;&amp;lt;&amp;lt;Extends&amp;gt;&amp;gt;&amp;nbsp;" style="edgeLabel;html=1;align=center;verticalAlign=middle;resizable=0;points=[];" vertex="1" connectable="0" parent="dooK4MXYY1zsELrZK12N-6">
          <mxGeometry x="-0.0125" y="1" relative="1" as="geometry">
            <mxPoint y="-3" as="offset" />
          </mxGeometry>
        </mxCell>
        <mxCell id="dooK4MXYY1zsELrZK12N-8" value="Visualizzazione informazioni dipendente" style="ellipse;whiteSpace=wrap;html=1;fontSize=10;" vertex="1" parent="1">
          <mxGeometry x="285" y="510" width="180" height="95.5" as="geometry" />
        </mxCell>
        <mxCell id="dooK4MXYY1zsELrZK12N-9" value="Visualizzazione lista dipendenti" style="ellipse;whiteSpace=wrap;html=1;fontSize=10;" vertex="1" parent="1">
          <mxGeometry x="285" y="640" width="180" height="95.5" as="geometry" />
        </mxCell>
        <mxCell id="dooK4MXYY1zsELrZK12N-10" value="Ricerca dipendente" style="ellipse;whiteSpace=wrap;html=1;fontSize=10;" vertex="1" parent="1">
          <mxGeometry x="285" y="380" width="180" height="95.5" as="geometry" />
        </mxCell>
        <mxCell id="dooK4MXYY1zsELrZK12N-13" value="Rimozione dipendente" style="ellipse;whiteSpace=wrap;html=1;fontSize=10;" vertex="1" parent="1">
          <mxGeometry x="285" y="250" width="180" height="95.5" as="geometry" />
        </mxCell>
        <mxCell id="dooK4MXYY1zsELrZK12N-15" value="Registrazione Error" style="ellipse;whiteSpace=wrap;html=1;fontSize=10;" vertex="1" parent="1">
          <mxGeometry x="590" y="122.25" width="180" height="95.5" as="geometry" />
        </mxCell>
        <mxCell id="dooK4MXYY1zsELrZK12N-18" value="Registrazione dipendente&lt;br&gt;&lt;br&gt;&lt;br&gt;&lt;b&gt;Extension Point&lt;br&gt;&lt;div&gt;&lt;span style=&quot;font-weight: normal&quot;&gt;- Campii registrazione non compilati&lt;/span&gt;&lt;/div&gt;&lt;/b&gt;&lt;div&gt;- E-mail o telefono non valido&lt;/div&gt;" style="ellipse;whiteSpace=wrap;html=1;fontSize=10;" vertex="1" parent="1">
          <mxGeometry x="280" y="110" width="190" height="120" as="geometry" />
        </mxCell>
        <mxCell id="dooK4MXYY1zsELrZK12N-19" value="" style="endArrow=none;html=1;fontSize=10;exitX=0;exitY=0.5;exitDx=0;exitDy=0;entryX=1;entryY=0.5;entryDx=0;entryDy=0;" edge="1" parent="1" source="dooK4MXYY1zsELrZK12N-18" target="dooK4MXYY1zsELrZK12N-18">
          <mxGeometry width="50" height="50" relative="1" as="geometry">
            <mxPoint x="542.5" y="407.75" as="sourcePoint" />
            <mxPoint x="478.5" y="286.75" as="targetPoint" />
          </mxGeometry>
        </mxCell>
      </root>
    </mxGraphModel>
  </diagram>
</mxfile>
